<svg viewBox="0 0 400 600" xmlns="http://www.w3.org/2000/svg" font-family="Arial, sans-serif">
  <defs>
    <!-- Arrowhead Marker Definition -->
    <marker id="arrowhead" markerWidth="10" markerHeight="7" refX="9" refY="3.5" orient="auto">
      <polygon points="0 0, 10 3.5, 0 7" fill="#333" />
    </marker>
  </defs>

  <style>
    .box { fill: #e0f2f7; stroke: #0277bd; stroke-width: 1.5; rx: 5; ry: 5; }
    .sub-box { fill: #ffffff; stroke: #546e7a; stroke-width: 1; rx: 3; ry: 3; }
    .label { font-size: 13px; fill: #333; text-anchor: middle; dominant-baseline: middle; }
    .sub-label { font-size: 11px; fill: #444; text-anchor: middle; dominant-baseline: middle; }
    .title { font-size: 18px; font-weight: bold; fill: #111; text-anchor: middle; }
    .sub-title { font-size: 16px; font-weight: bold; fill: #01579b; text-anchor: middle; }
    .arrow { stroke: #333; stroke-width: 1.5; marker-end: url(#arrowhead); }
  </style>

  <!-- Main Title -->
  <text x="200" y="25" class="title">Simplified Llama Architecture</text>

  <!-- Input -->
  <rect x="140" y="50" width="120" height="30" class="box"/>
  <text x="200" y="65" class="label">Input Tokens</text>
  <line x1="200" y1="80" x2="200" y2="100" class="arrow"/>

  <!-- Embedding -->
  <rect x="125" y="100" width="150" height="40" class="box"/>
  <text x="200" y="120" class="label">Input Embedding</text>
  <text x="200" y="133" class="sub-label">+ Positional Encoding</text>
  <line x1="200" y1="140" x2="200" y2="160" class="arrow"/>

  <!-- Transformer Decoder Layer 1 -->
  <rect x="100" y="160" width="200" height="100" class="box"/>
  <text x="200" y="175" class="label">Transformer Decoder Layer 1</text>
  <rect x="120" y="188" width="160" height="25" class="sub-box"/>
  <text x="200" y="201" class="sub-label">Multi-Head Self-Attention</text>
  <rect x="120" y="218" width="160" height="25" class="sub-box"/>
  <text x="200" y="231" class="sub-label">Feed-Forward Network</text>
  <text x="200" y="250" class="sub-label">(+ LayerNorm, Skip)</text>
  <line x1="200" y1="260" x2="200" y2="275" class="arrow"/>

  <!-- Dots indicating multiple layers -->
  <text x="200" y="285" font-size="16px" fill="#555" text-anchor="middle">...</text>
  <line x1="200" y1="295" x2="200" y2="310" class="arrow"/>

  <!-- Transformer Decoder Layer N -->
  <rect x="100" y="310" width="200" height="100" class="box"/>
  <text x="200" y="325" class="label">Transformer Decoder Layer N</text>
  <rect x="120" y="338" width="160" height="25" class="sub-box"/>
  <text x="200" y="351" class="sub-label">Multi-Head Self-Attention</text>
  <rect x="120" y="368" width="160" height="25" class="sub-box"/>
  <text x="200" y="381" class="sub-label">Feed-Forward Network</text>
  <text x="200" y="400" class="sub-label">(+ LayerNorm, Skip)</text>
  <line x1="200" y1="410" x2="200" y2="430" class="arrow"/>

  <!-- Linear Output Layer -->
  <rect x="125" y="430" width="150" height="30" class="box"/>
  <text x="200" y="445" class="label">Linear Output Layer</text>
  <line x1="200" y1="460" x2="200" y2="480" class="arrow"/>

  <!-- Softmax -->
  <rect x="140" y="480" width="120" height="30" class="box"/>
  <text x="200" y="495" class="label">Softmax</text>
  <line x1="200" y1="510" x2="200" y2="530" class="arrow"/>

  <!-- Output Probabilities -->
  <ellipse cx="200" cy="545" rx="70" ry="15" fill="#fff" stroke="#0277bd" stroke-width="1.5"/>
  <text x="200" y="545" class="label">Output Probabilities</text>
</svg>