<svg viewBox="0 0 400 650" xmlns="http://www.w3.org/2000/svg" font-family="Arial, sans-serif">
  <defs>
    <!-- Arrowhead Marker Definition -->
    <marker id="arrowhead" markerWidth="10" markerHeight="7" refX="9" refY="3.5" orient="auto">
      <polygon points="0 0, 10 3.5, 0 7" fill="#333" />
    </marker>
  </defs>

  <style>
    .box { fill: #e0f2f7; stroke: #0277bd; stroke-width: 1.5; rx: 5; ry: 5; }
    .sub-box { fill: #ffffff; stroke: #546e7a; stroke-width: 1; rx: 3; ry: 3; }
    .lora-box { fill: #fff3e0; stroke: #ff9800; stroke-width: 1; rx: 3; ry: 3; } /* Orange for LoRA */
    .label { font-size: 10px; fill: #333; text-anchor: middle; dominant-baseline: middle; }
    .sub-label { font-size: 9px; fill: #444; text-anchor: middle; dominant-baseline: middle; }
    .lora-label { font-size: 7px; fill: #bf360c; text-anchor: middle; dominant-baseline: middle; font-weight: bold; }
    .frozen-label { font-size: 8px; fill: #666; text-anchor: middle; dominant-baseline: middle; font-style: italic;}
    .title { font-size: 14px; font-weight: bold; fill: #111; text-anchor: middle; }
    .sub-title { font-size: 12px; font-weight: bold; fill: #01579b; text-anchor: middle; }
    .arrow { stroke: #333; stroke-width: 1.5; marker-end: url(#arrowhead); }
    .lora-arrow { stroke: #ff9800; stroke-width: 1; marker-end: url(#arrowhead); }
  </style>

  <!-- Main Title -->
  <text x="200" y="25" class="title">Finetuned Llama 3.1 8B (LoRA) for OTSD</text>

  <!-- Input -->
  <rect x="140" y="50" width="120" height="30" class="box"/>
  <text x="200" y="65" class="label">Input Text (Prompt)</text>
  <line x1="200" y1="80" x2="200" y2="100" class="arrow"/>

  <!-- Embedding -->
  <rect x="125" y="100" width="150" height="40" class="box"/>
  <text x="200" y="120" class="label">Input Embedding</text>
  <text x="200" y="133" class="sub-label">+ Positional Encoding</text>
  <text x="200" y="150" class="frozen-label">(Frozen)</text>
  <line x1="200" y1="160" x2="200" y2="180" class="arrow"/>

  <!-- Transformer Decoder Layer 1 -->
  <rect x="80" y="180" width="240" height="120" class="box"/>
  <text x="200" y="195" class="label">Transformer Decoder Layer 1</text>
  <text x="200" y="208" class="frozen-label">(Base Weights Frozen)</text>
  <!-- MHSA + LoRA -->
  <rect x="100" y="220" width="160" height="30" class="sub-box"/>
  <text x="180" y="235" class="sub-label">Multi-Head Self-Attention</text>
  <rect x="265" y="220" width="45" height="30" class="lora-box"/>
  <text x="287.5" y="235" class="lora-label">LoRA</text>
  <line x1="260" y1="235" x2="265" y2="235" class="lora-arrow" /> <!-- Connect MHSA to LoRA -->
  <!-- FFN + LoRA -->
  <rect x="100" y="255" width="160" height="30" class="sub-box"/>
  <text x="180" y="270" class="sub-label">Feed-Forward Network</text>
  <rect x="265" y="255" width="45" height="30" class="lora-box"/>
  <text x="287.5" y="270" class="lora-label">LoRA</text>
  <line x1="260" y1="270" x2="265" y2="270" class="lora-arrow" /> <!-- Connect FFN to LoRA -->
  <text x="200" y="293" class="sub-label">(+ LayerNorm, Skip)</text>
  <line x1="200" y1="300" x2="200" y2="315" class="arrow"/>

  <!-- Dots indicating multiple layers -->
  <text x="200" y="325" font-size="16px" fill="#555" text-anchor="middle">... (N Layers)</text>
  <line x1="200" y1="335" x2="200" y2="350" class="arrow"/>

  <!-- Transformer Decoder Layer N -->
  <rect x="80" y="350" width="240" height="120" class="box"/>
  <text x="200" y="365" class="label">Transformer Decoder Layer N</text>
  <text x="200" y="378" class="frozen-label">(Base Weights Frozen)</text>
   <!-- MHSA + LoRA -->
  <rect x="100" y="390" width="160" height="30" class="sub-box"/>
  <text x="180" y="405" class="sub-label">Multi-Head Self-Attention</text>
  <rect x="265" y="390" width="45" height="30" class="lora-box"/>
  <text x="287.5" y="405" class="lora-label">LoRA</text>
  <line x1="260" y1="405" x2="265" y2="405" class="lora-arrow" /> <!-- Connect MHSA to LoRA -->
  <!-- FFN + LoRA -->
  <rect x="100" y="425" width="160" height="30" class="sub-box"/>
  <text x="180" y="440" class="sub-label">Feed-Forward Network</text>
  <rect x="265" y="425" width="45" height="30" class="lora-box"/>
  <text x="287.5" y="440" class="lora-label">LoRA</text>
  <line x1="260" y1="440" x2="265" y2="440" class="lora-arrow" /> <!-- Connect FFN to LoRA -->
  <text x="200" y="463" class="sub-label">(+ LayerNorm, Skip)</text>
  <line x1="200" y1="470" x2="200" y2="490" class="arrow"/>

  <!-- Linear Output Layer -->
  <rect x="125" y="490" width="150" height="30" class="box"/>
  <text x="200" y="505" class="label">Linear Output Layer</text>
  <text x="200" y="518" class="frozen-label">(Frozen)</text>
  <line x1="200" y1="525" x2="200" y2="545" class="arrow"/>

  <!-- Softmax -->
  <rect x="140" y="545" width="120" height="30" class="box"/>
  <text x="200" y="560" class="label">Softmax</text>
  <line x1="200" y1="575" x2="200" y2="595" class="arrow"/>

  <!-- Output Probabilities -->
  <rect x="100" y="595" width="200" height="40" class="box"/>
  <text x="200" y="610" class="label">Generated Output</text>
  <text x="200" y="625" class="sub-label" font-family="monospace">Target: ..., Stance: ...</text>
</svg>