<?xml version="1.0" encoding="utf-8" standalone="no"?>
<!DOCTYPE svg PUBLIC "-//W3C//DTD SVG 1.1//EN"
  "http://www.w3.org/Graphics/SVG/1.1/DTD/svg11.dtd">
<svg xmlns:xlink="http://www.w3.org/1999/xlink" width="720pt" height="432pt" viewBox="0 0 720 432" xmlns="http://www.w3.org/2000/svg" version="1.1">
 <metadata>
  <rdf:RDF xmlns:dc="http://purl.org/dc/elements/1.1/" xmlns:cc="http://creativecommons.org/ns#" xmlns:rdf="http://www.w3.org/1999/02/22-rdf-syntax-ns#">
   <cc:Work>
    <dc:type rdf:resource="http://purl.org/dc/dcmitype/StillImage"/>
    <dc:date>2025-05-01T18:56:40.077657</dc:date>
    <dc:format>image/svg+xml</dc:format>
    <dc:creator>
     <cc:Agent>
      <dc:title>Matplotlib v3.10.1, https://matplotlib.org/</dc:title>
     </cc:Agent>
    </dc:creator>
   </cc:Work>
  </rdf:RDF>
 </metadata>
 <defs>
  <style type="text/css">*{stroke-linejoin: round; stroke-linecap: butt}</style>
 </defs>
 <g id="figure_1">
  <g id="patch_1">
   <path d="M 0 432 
L 720 432 
L 720 0 
L 0 0 
z
" style="fill: #ffffff"/>
  </g>
  <g id="axes_1">
   <g id="patch_2">
    <path d="M 90 384.48 
L 648 384.48 
L 648 51.84 
L 90 51.84 
z
" style="fill: #ffffff"/>
   </g>
   <g id="matplotlib.axis_1">
    <g id="xtick_1">
     <g id="line2d_1">
      <path d="M 106.765794 384.48 
L 106.765794 51.84 
" clip-path="url(#ped352883df)" style="fill: none; stroke: #b0b0b0; stroke-width: 0.8; stroke-linecap: square"/>
     </g>
     <g id="line2d_2">
      <defs>
       <path id="mb837ed4e04" d="M 0 0 
L 0 3.5 
" style="stroke: #000000; stroke-width: 0.8"/>
      </defs>
      <g>
       <use xlink:href="#mb837ed4e04" x="106.765794" y="384.48" style="stroke: #000000; stroke-width: 0.8"/>
      </g>
     </g>
     <g id="text_1">
      <!-- 0 -->
      <g transform="translate(103.584544 399.078438) scale(0.1 -0.1)">
       <defs>
        <path id="DejaVuSans-30" d="M 2034 4250 
Q 1547 4250 1301 3770 
Q 1056 3291 1056 2328 
Q 1056 1369 1301 889 
Q 1547 409 2034 409 
Q 2525 409 2770 889 
Q 3016 1369 3016 2328 
Q 3016 3291 2770 3770 
Q 2525 4250 2034 4250 
z
M 2034 4750 
Q 2819 4750 3233 4129 
Q 3647 3509 3647 2328 
Q 3647 1150 3233 529 
Q 2819 -91 2034 -91 
Q 1250 -91 836 529 
Q 422 1150 422 2328 
Q 422 3509 836 4129 
Q 1250 4750 2034 4750 
z
" transform="scale(0.015625)"/>
       </defs>
       <use xlink:href="#DejaVuSans-30"/>
      </g>
     </g>
    </g>
    <g id="xtick_2">
     <g id="line2d_3">
      <path d="M 192.744222 384.48 
L 192.744222 51.84 
" clip-path="url(#ped352883df)" style="fill: none; stroke: #b0b0b0; stroke-width: 0.8; stroke-linecap: square"/>
     </g>
     <g id="line2d_4">
      <g>
       <use xlink:href="#mb837ed4e04" x="192.744222" y="384.48" style="stroke: #000000; stroke-width: 0.8"/>
      </g>
     </g>
     <g id="text_2">
      <!-- 10 -->
      <g transform="translate(186.381722 399.078438) scale(0.1 -0.1)">
       <defs>
        <path id="DejaVuSans-31" d="M 794 531 
L 1825 531 
L 1825 4091 
L 703 3866 
L 703 4441 
L 1819 4666 
L 2450 4666 
L 2450 531 
L 3481 531 
L 3481 0 
L 794 0 
L 794 531 
z
" transform="scale(0.015625)"/>
       </defs>
       <use xlink:href="#DejaVuSans-31"/>
       <use xlink:href="#DejaVuSans-30" transform="translate(63.623047 0)"/>
      </g>
     </g>
    </g>
    <g id="xtick_3">
     <g id="line2d_5">
      <path d="M 278.72265 384.48 
L 278.72265 51.84 
" clip-path="url(#ped352883df)" style="fill: none; stroke: #b0b0b0; stroke-width: 0.8; stroke-linecap: square"/>
     </g>
     <g id="line2d_6">
      <g>
       <use xlink:href="#mb837ed4e04" x="278.72265" y="384.48" style="stroke: #000000; stroke-width: 0.8"/>
      </g>
     </g>
     <g id="text_3">
      <!-- 20 -->
      <g transform="translate(272.36015 399.078438) scale(0.1 -0.1)">
       <defs>
        <path id="DejaVuSans-32" d="M 1228 531 
L 3431 531 
L 3431 0 
L 469 0 
L 469 531 
Q 828 903 1448 1529 
Q 2069 2156 2228 2338 
Q 2531 2678 2651 2914 
Q 2772 3150 2772 3378 
Q 2772 3750 2511 3984 
Q 2250 4219 1831 4219 
Q 1534 4219 1204 4116 
Q 875 4013 500 3803 
L 500 4441 
Q 881 4594 1212 4672 
Q 1544 4750 1819 4750 
Q 2544 4750 2975 4387 
Q 3406 4025 3406 3419 
Q 3406 3131 3298 2873 
Q 3191 2616 2906 2266 
Q 2828 2175 2409 1742 
Q 1991 1309 1228 531 
z
" transform="scale(0.015625)"/>
       </defs>
       <use xlink:href="#DejaVuSans-32"/>
       <use xlink:href="#DejaVuSans-30" transform="translate(63.623047 0)"/>
      </g>
     </g>
    </g>
    <g id="xtick_4">
     <g id="line2d_7">
      <path d="M 364.701079 384.48 
L 364.701079 51.84 
" clip-path="url(#ped352883df)" style="fill: none; stroke: #b0b0b0; stroke-width: 0.8; stroke-linecap: square"/>
     </g>
     <g id="line2d_8">
      <g>
       <use xlink:href="#mb837ed4e04" x="364.701079" y="384.48" style="stroke: #000000; stroke-width: 0.8"/>
      </g>
     </g>
     <g id="text_4">
      <!-- 30 -->
      <g transform="translate(358.338579 399.078438) scale(0.1 -0.1)">
       <defs>
        <path id="DejaVuSans-33" d="M 2597 2516 
Q 3050 2419 3304 2112 
Q 3559 1806 3559 1356 
Q 3559 666 3084 287 
Q 2609 -91 1734 -91 
Q 1441 -91 1130 -33 
Q 819 25 488 141 
L 488 750 
Q 750 597 1062 519 
Q 1375 441 1716 441 
Q 2309 441 2620 675 
Q 2931 909 2931 1356 
Q 2931 1769 2642 2001 
Q 2353 2234 1838 2234 
L 1294 2234 
L 1294 2753 
L 1863 2753 
Q 2328 2753 2575 2939 
Q 2822 3125 2822 3475 
Q 2822 3834 2567 4026 
Q 2313 4219 1838 4219 
Q 1578 4219 1281 4162 
Q 984 4106 628 3988 
L 628 4550 
Q 988 4650 1302 4700 
Q 1616 4750 1894 4750 
Q 2613 4750 3031 4423 
Q 3450 4097 3450 3541 
Q 3450 3153 3228 2886 
Q 3006 2619 2597 2516 
z
" transform="scale(0.015625)"/>
       </defs>
       <use xlink:href="#DejaVuSans-33"/>
       <use xlink:href="#DejaVuSans-30" transform="translate(63.623047 0)"/>
      </g>
     </g>
    </g>
    <g id="xtick_5">
     <g id="line2d_9">
      <path d="M 450.679507 384.48 
L 450.679507 51.84 
" clip-path="url(#ped352883df)" style="fill: none; stroke: #b0b0b0; stroke-width: 0.8; stroke-linecap: square"/>
     </g>
     <g id="line2d_10">
      <g>
       <use xlink:href="#mb837ed4e04" x="450.679507" y="384.48" style="stroke: #000000; stroke-width: 0.8"/>
      </g>
     </g>
     <g id="text_5">
      <!-- 40 -->
      <g transform="translate(444.317007 399.078438) scale(0.1 -0.1)">
       <defs>
        <path id="DejaVuSans-34" d="M 2419 4116 
L 825 1625 
L 2419 1625 
L 2419 4116 
z
M 2253 4666 
L 3047 4666 
L 3047 1625 
L 3713 1625 
L 3713 1100 
L 3047 1100 
L 3047 0 
L 2419 0 
L 2419 1100 
L 313 1100 
L 313 1709 
L 2253 4666 
z
" transform="scale(0.015625)"/>
       </defs>
       <use xlink:href="#DejaVuSans-34"/>
       <use xlink:href="#DejaVuSans-30" transform="translate(63.623047 0)"/>
      </g>
     </g>
    </g>
    <g id="xtick_6">
     <g id="line2d_11">
      <path d="M 536.657935 384.48 
L 536.657935 51.84 
" clip-path="url(#ped352883df)" style="fill: none; stroke: #b0b0b0; stroke-width: 0.8; stroke-linecap: square"/>
     </g>
     <g id="line2d_12">
      <g>
       <use xlink:href="#mb837ed4e04" x="536.657935" y="384.48" style="stroke: #000000; stroke-width: 0.8"/>
      </g>
     </g>
     <g id="text_6">
      <!-- 50 -->
      <g transform="translate(530.295435 399.078438) scale(0.1 -0.1)">
       <defs>
        <path id="DejaVuSans-35" d="M 691 4666 
L 3169 4666 
L 3169 4134 
L 1269 4134 
L 1269 2991 
Q 1406 3038 1543 3061 
Q 1681 3084 1819 3084 
Q 2600 3084 3056 2656 
Q 3513 2228 3513 1497 
Q 3513 744 3044 326 
Q 2575 -91 1722 -91 
Q 1428 -91 1123 -41 
Q 819 9 494 109 
L 494 744 
Q 775 591 1075 516 
Q 1375 441 1709 441 
Q 2250 441 2565 725 
Q 2881 1009 2881 1497 
Q 2881 1984 2565 2268 
Q 2250 2553 1709 2553 
Q 1456 2553 1204 2497 
Q 953 2441 691 2322 
L 691 4666 
z
" transform="scale(0.015625)"/>
       </defs>
       <use xlink:href="#DejaVuSans-35"/>
       <use xlink:href="#DejaVuSans-30" transform="translate(63.623047 0)"/>
      </g>
     </g>
    </g>
    <g id="xtick_7">
     <g id="line2d_13">
      <path d="M 622.636364 384.48 
L 622.636364 51.84 
" clip-path="url(#ped352883df)" style="fill: none; stroke: #b0b0b0; stroke-width: 0.8; stroke-linecap: square"/>
     </g>
     <g id="line2d_14">
      <g>
       <use xlink:href="#mb837ed4e04" x="622.636364" y="384.48" style="stroke: #000000; stroke-width: 0.8"/>
      </g>
     </g>
     <g id="text_7">
      <!-- 60 -->
      <g transform="translate(616.273864 399.078438) scale(0.1 -0.1)">
       <defs>
        <path id="DejaVuSans-36" d="M 2113 2584 
Q 1688 2584 1439 2293 
Q 1191 2003 1191 1497 
Q 1191 994 1439 701 
Q 1688 409 2113 409 
Q 2538 409 2786 701 
Q 3034 994 3034 1497 
Q 3034 2003 2786 2293 
Q 2538 2584 2113 2584 
z
M 3366 4563 
L 3366 3988 
Q 3128 4100 2886 4159 
Q 2644 4219 2406 4219 
Q 1781 4219 1451 3797 
Q 1122 3375 1075 2522 
Q 1259 2794 1537 2939 
Q 1816 3084 2150 3084 
Q 2853 3084 3261 2657 
Q 3669 2231 3669 1497 
Q 3669 778 3244 343 
Q 2819 -91 2113 -91 
Q 1303 -91 875 529 
Q 447 1150 447 2328 
Q 447 3434 972 4092 
Q 1497 4750 2381 4750 
Q 2619 4750 2861 4703 
Q 3103 4656 3366 4563 
z
" transform="scale(0.015625)"/>
       </defs>
       <use xlink:href="#DejaVuSans-36"/>
       <use xlink:href="#DejaVuSans-30" transform="translate(63.623047 0)"/>
      </g>
     </g>
    </g>
    <g id="text_8">
     <!-- Step -->
     <g transform="translate(357.614844 412.756563) scale(0.1 -0.1)">
      <defs>
       <path id="DejaVuSans-53" d="M 3425 4513 
L 3425 3897 
Q 3066 4069 2747 4153 
Q 2428 4238 2131 4238 
Q 1616 4238 1336 4038 
Q 1056 3838 1056 3469 
Q 1056 3159 1242 3001 
Q 1428 2844 1947 2747 
L 2328 2669 
Q 3034 2534 3370 2195 
Q 3706 1856 3706 1288 
Q 3706 609 3251 259 
Q 2797 -91 1919 -91 
Q 1588 -91 1214 -16 
Q 841 59 441 206 
L 441 856 
Q 825 641 1194 531 
Q 1563 422 1919 422 
Q 2459 422 2753 634 
Q 3047 847 3047 1241 
Q 3047 1584 2836 1778 
Q 2625 1972 2144 2069 
L 1759 2144 
Q 1053 2284 737 2584 
Q 422 2884 422 3419 
Q 422 4038 858 4394 
Q 1294 4750 2059 4750 
Q 2388 4750 2728 4690 
Q 3069 4631 3425 4513 
z
" transform="scale(0.015625)"/>
       <path id="DejaVuSans-74" d="M 1172 4494 
L 1172 3500 
L 2356 3500 
L 2356 3053 
L 1172 3053 
L 1172 1153 
Q 1172 725 1289 603 
Q 1406 481 1766 481 
L 2356 481 
L 2356 0 
L 1766 0 
Q 1100 0 847 248 
Q 594 497 594 1153 
L 594 3053 
L 172 3053 
L 172 3500 
L 594 3500 
L 594 4494 
L 1172 4494 
z
" transform="scale(0.015625)"/>
       <path id="DejaVuSans-65" d="M 3597 1894 
L 3597 1613 
L 953 1613 
Q 991 1019 1311 708 
Q 1631 397 2203 397 
Q 2534 397 2845 478 
Q 3156 559 3463 722 
L 3463 178 
Q 3153 47 2828 -22 
Q 2503 -91 2169 -91 
Q 1331 -91 842 396 
Q 353 884 353 1716 
Q 353 2575 817 3079 
Q 1281 3584 2069 3584 
Q 2775 3584 3186 3129 
Q 3597 2675 3597 1894 
z
M 3022 2063 
Q 3016 2534 2758 2815 
Q 2500 3097 2075 3097 
Q 1594 3097 1305 2825 
Q 1016 2553 972 2059 
L 3022 2063 
z
" transform="scale(0.015625)"/>
       <path id="DejaVuSans-70" d="M 1159 525 
L 1159 -1331 
L 581 -1331 
L 581 3500 
L 1159 3500 
L 1159 2969 
Q 1341 3281 1617 3432 
Q 1894 3584 2278 3584 
Q 2916 3584 3314 3078 
Q 3713 2572 3713 1747 
Q 3713 922 3314 415 
Q 2916 -91 2278 -91 
Q 1894 -91 1617 61 
Q 1341 213 1159 525 
z
M 3116 1747 
Q 3116 2381 2855 2742 
Q 2594 3103 2138 3103 
Q 1681 3103 1420 2742 
Q 1159 2381 1159 1747 
Q 1159 1113 1420 752 
Q 1681 391 2138 391 
Q 2594 391 2855 752 
Q 3116 1113 3116 1747 
z
" transform="scale(0.015625)"/>
      </defs>
      <use xlink:href="#DejaVuSans-53"/>
      <use xlink:href="#DejaVuSans-74" transform="translate(63.476562 0)"/>
      <use xlink:href="#DejaVuSans-65" transform="translate(102.685547 0)"/>
      <use xlink:href="#DejaVuSans-70" transform="translate(164.208984 0)"/>
     </g>
    </g>
   </g>
   <g id="matplotlib.axis_2">
    <g id="ytick_1">
     <g id="line2d_15">
      <path d="M 90 366.12089 
L 648 366.12089 
" clip-path="url(#ped352883df)" style="fill: none; stroke: #b0b0b0; stroke-width: 0.8; stroke-linecap: square"/>
     </g>
     <g id="line2d_16">
      <defs>
       <path id="m1f9472cadd" d="M 0 0 
L -3.5 0 
" style="stroke: #000000; stroke-width: 0.8"/>
      </defs>
      <g>
       <use xlink:href="#m1f9472cadd" x="90" y="366.12089" style="stroke: #000000; stroke-width: 0.8"/>
      </g>
     </g>
     <g id="text_9">
      <!-- 1.50 -->
      <g transform="translate(60.734375 369.920109) scale(0.1 -0.1)">
       <defs>
        <path id="DejaVuSans-2e" d="M 684 794 
L 1344 794 
L 1344 0 
L 684 0 
L 684 794 
z
" transform="scale(0.015625)"/>
       </defs>
       <use xlink:href="#DejaVuSans-31"/>
       <use xlink:href="#DejaVuSans-2e" transform="translate(63.623047 0)"/>
       <use xlink:href="#DejaVuSans-35" transform="translate(95.410156 0)"/>
       <use xlink:href="#DejaVuSans-30" transform="translate(159.033203 0)"/>
      </g>
     </g>
    </g>
    <g id="ytick_2">
     <g id="line2d_17">
      <path d="M 90 324.593837 
L 648 324.593837 
" clip-path="url(#ped352883df)" style="fill: none; stroke: #b0b0b0; stroke-width: 0.8; stroke-linecap: square"/>
     </g>
     <g id="line2d_18">
      <g>
       <use xlink:href="#m1f9472cadd" x="90" y="324.593837" style="stroke: #000000; stroke-width: 0.8"/>
      </g>
     </g>
     <g id="text_10">
      <!-- 1.75 -->
      <g transform="translate(60.734375 328.393056) scale(0.1 -0.1)">
       <defs>
        <path id="DejaVuSans-37" d="M 525 4666 
L 3525 4666 
L 3525 4397 
L 1831 0 
L 1172 0 
L 2766 4134 
L 525 4134 
L 525 4666 
z
" transform="scale(0.015625)"/>
       </defs>
       <use xlink:href="#DejaVuSans-31"/>
       <use xlink:href="#DejaVuSans-2e" transform="translate(63.623047 0)"/>
       <use xlink:href="#DejaVuSans-37" transform="translate(95.410156 0)"/>
       <use xlink:href="#DejaVuSans-35" transform="translate(159.033203 0)"/>
      </g>
     </g>
    </g>
    <g id="ytick_3">
     <g id="line2d_19">
      <path d="M 90 283.066784 
L 648 283.066784 
" clip-path="url(#ped352883df)" style="fill: none; stroke: #b0b0b0; stroke-width: 0.8; stroke-linecap: square"/>
     </g>
     <g id="line2d_20">
      <g>
       <use xlink:href="#m1f9472cadd" x="90" y="283.066784" style="stroke: #000000; stroke-width: 0.8"/>
      </g>
     </g>
     <g id="text_11">
      <!-- 2.00 -->
      <g transform="translate(60.734375 286.866003) scale(0.1 -0.1)">
       <use xlink:href="#DejaVuSans-32"/>
       <use xlink:href="#DejaVuSans-2e" transform="translate(63.623047 0)"/>
       <use xlink:href="#DejaVuSans-30" transform="translate(95.410156 0)"/>
       <use xlink:href="#DejaVuSans-30" transform="translate(159.033203 0)"/>
      </g>
     </g>
    </g>
    <g id="ytick_4">
     <g id="line2d_21">
      <path d="M 90 241.539731 
L 648 241.539731 
" clip-path="url(#ped352883df)" style="fill: none; stroke: #b0b0b0; stroke-width: 0.8; stroke-linecap: square"/>
     </g>
     <g id="line2d_22">
      <g>
       <use xlink:href="#m1f9472cadd" x="90" y="241.539731" style="stroke: #000000; stroke-width: 0.8"/>
      </g>
     </g>
     <g id="text_12">
      <!-- 2.25 -->
      <g transform="translate(60.734375 245.33895) scale(0.1 -0.1)">
       <use xlink:href="#DejaVuSans-32"/>
       <use xlink:href="#DejaVuSans-2e" transform="translate(63.623047 0)"/>
       <use xlink:href="#DejaVuSans-32" transform="translate(95.410156 0)"/>
       <use xlink:href="#DejaVuSans-35" transform="translate(159.033203 0)"/>
      </g>
     </g>
    </g>
    <g id="ytick_5">
     <g id="line2d_23">
      <path d="M 90 200.012678 
L 648 200.012678 
" clip-path="url(#ped352883df)" style="fill: none; stroke: #b0b0b0; stroke-width: 0.8; stroke-linecap: square"/>
     </g>
     <g id="line2d_24">
      <g>
       <use xlink:href="#m1f9472cadd" x="90" y="200.012678" style="stroke: #000000; stroke-width: 0.8"/>
      </g>
     </g>
     <g id="text_13">
      <!-- 2.50 -->
      <g transform="translate(60.734375 203.811897) scale(0.1 -0.1)">
       <use xlink:href="#DejaVuSans-32"/>
       <use xlink:href="#DejaVuSans-2e" transform="translate(63.623047 0)"/>
       <use xlink:href="#DejaVuSans-35" transform="translate(95.410156 0)"/>
       <use xlink:href="#DejaVuSans-30" transform="translate(159.033203 0)"/>
      </g>
     </g>
    </g>
    <g id="ytick_6">
     <g id="line2d_25">
      <path d="M 90 158.485625 
L 648 158.485625 
" clip-path="url(#ped352883df)" style="fill: none; stroke: #b0b0b0; stroke-width: 0.8; stroke-linecap: square"/>
     </g>
     <g id="line2d_26">
      <g>
       <use xlink:href="#m1f9472cadd" x="90" y="158.485625" style="stroke: #000000; stroke-width: 0.8"/>
      </g>
     </g>
     <g id="text_14">
      <!-- 2.75 -->
      <g transform="translate(60.734375 162.284844) scale(0.1 -0.1)">
       <use xlink:href="#DejaVuSans-32"/>
       <use xlink:href="#DejaVuSans-2e" transform="translate(63.623047 0)"/>
       <use xlink:href="#DejaVuSans-37" transform="translate(95.410156 0)"/>
       <use xlink:href="#DejaVuSans-35" transform="translate(159.033203 0)"/>
      </g>
     </g>
    </g>
    <g id="ytick_7">
     <g id="line2d_27">
      <path d="M 90 116.958572 
L 648 116.958572 
" clip-path="url(#ped352883df)" style="fill: none; stroke: #b0b0b0; stroke-width: 0.8; stroke-linecap: square"/>
     </g>
     <g id="line2d_28">
      <g>
       <use xlink:href="#m1f9472cadd" x="90" y="116.958572" style="stroke: #000000; stroke-width: 0.8"/>
      </g>
     </g>
     <g id="text_15">
      <!-- 3.00 -->
      <g transform="translate(60.734375 120.757791) scale(0.1 -0.1)">
       <use xlink:href="#DejaVuSans-33"/>
       <use xlink:href="#DejaVuSans-2e" transform="translate(63.623047 0)"/>
       <use xlink:href="#DejaVuSans-30" transform="translate(95.410156 0)"/>
       <use xlink:href="#DejaVuSans-30" transform="translate(159.033203 0)"/>
      </g>
     </g>
    </g>
    <g id="ytick_8">
     <g id="line2d_29">
      <path d="M 90 75.431519 
L 648 75.431519 
" clip-path="url(#ped352883df)" style="fill: none; stroke: #b0b0b0; stroke-width: 0.8; stroke-linecap: square"/>
     </g>
     <g id="line2d_30">
      <g>
       <use xlink:href="#m1f9472cadd" x="90" y="75.431519" style="stroke: #000000; stroke-width: 0.8"/>
      </g>
     </g>
     <g id="text_16">
      <!-- 3.25 -->
      <g transform="translate(60.734375 79.230738) scale(0.1 -0.1)">
       <use xlink:href="#DejaVuSans-33"/>
       <use xlink:href="#DejaVuSans-2e" transform="translate(63.623047 0)"/>
       <use xlink:href="#DejaVuSans-32" transform="translate(95.410156 0)"/>
       <use xlink:href="#DejaVuSans-35" transform="translate(159.033203 0)"/>
      </g>
     </g>
    </g>
    <g id="text_17">
     <!-- Training Loss -->
     <g transform="translate(54.654687 250.442031) rotate(-90) scale(0.1 -0.1)">
      <defs>
       <path id="DejaVuSans-54" d="M -19 4666 
L 3928 4666 
L 3928 4134 
L 2272 4134 
L 2272 0 
L 1638 0 
L 1638 4134 
L -19 4134 
L -19 4666 
z
" transform="scale(0.015625)"/>
       <path id="DejaVuSans-72" d="M 2631 2963 
Q 2534 3019 2420 3045 
Q 2306 3072 2169 3072 
Q 1681 3072 1420 2755 
Q 1159 2438 1159 1844 
L 1159 0 
L 581 0 
L 581 3500 
L 1159 3500 
L 1159 2956 
Q 1341 3275 1631 3429 
Q 1922 3584 2338 3584 
Q 2397 3584 2469 3576 
Q 2541 3569 2628 3553 
L 2631 2963 
z
" transform="scale(0.015625)"/>
       <path id="DejaVuSans-61" d="M 2194 1759 
Q 1497 1759 1228 1600 
Q 959 1441 959 1056 
Q 959 750 1161 570 
Q 1363 391 1709 391 
Q 2188 391 2477 730 
Q 2766 1069 2766 1631 
L 2766 1759 
L 2194 1759 
z
M 3341 1997 
L 3341 0 
L 2766 0 
L 2766 531 
Q 2569 213 2275 61 
Q 1981 -91 1556 -91 
Q 1019 -91 701 211 
Q 384 513 384 1019 
Q 384 1609 779 1909 
Q 1175 2209 1959 2209 
L 2766 2209 
L 2766 2266 
Q 2766 2663 2505 2880 
Q 2244 3097 1772 3097 
Q 1472 3097 1187 3025 
Q 903 2953 641 2809 
L 641 3341 
Q 956 3463 1253 3523 
Q 1550 3584 1831 3584 
Q 2591 3584 2966 3190 
Q 3341 2797 3341 1997 
z
" transform="scale(0.015625)"/>
       <path id="DejaVuSans-69" d="M 603 3500 
L 1178 3500 
L 1178 0 
L 603 0 
L 603 3500 
z
M 603 4863 
L 1178 4863 
L 1178 4134 
L 603 4134 
L 603 4863 
z
" transform="scale(0.015625)"/>
       <path id="DejaVuSans-6e" d="M 3513 2113 
L 3513 0 
L 2938 0 
L 2938 2094 
Q 2938 2591 2744 2837 
Q 2550 3084 2163 3084 
Q 1697 3084 1428 2787 
Q 1159 2491 1159 1978 
L 1159 0 
L 581 0 
L 581 3500 
L 1159 3500 
L 1159 2956 
Q 1366 3272 1645 3428 
Q 1925 3584 2291 3584 
Q 2894 3584 3203 3211 
Q 3513 2838 3513 2113 
z
" transform="scale(0.015625)"/>
       <path id="DejaVuSans-67" d="M 2906 1791 
Q 2906 2416 2648 2759 
Q 2391 3103 1925 3103 
Q 1463 3103 1205 2759 
Q 947 2416 947 1791 
Q 947 1169 1205 825 
Q 1463 481 1925 481 
Q 2391 481 2648 825 
Q 2906 1169 2906 1791 
z
M 3481 434 
Q 3481 -459 3084 -895 
Q 2688 -1331 1869 -1331 
Q 1566 -1331 1297 -1286 
Q 1028 -1241 775 -1147 
L 775 -588 
Q 1028 -725 1275 -790 
Q 1522 -856 1778 -856 
Q 2344 -856 2625 -561 
Q 2906 -266 2906 331 
L 2906 616 
Q 2728 306 2450 153 
Q 2172 0 1784 0 
Q 1141 0 747 490 
Q 353 981 353 1791 
Q 353 2603 747 3093 
Q 1141 3584 1784 3584 
Q 2172 3584 2450 3431 
Q 2728 3278 2906 2969 
L 2906 3500 
L 3481 3500 
L 3481 434 
z
" transform="scale(0.015625)"/>
       <path id="DejaVuSans-20" transform="scale(0.015625)"/>
       <path id="DejaVuSans-4c" d="M 628 4666 
L 1259 4666 
L 1259 531 
L 3531 531 
L 3531 0 
L 628 0 
L 628 4666 
z
" transform="scale(0.015625)"/>
       <path id="DejaVuSans-6f" d="M 1959 3097 
Q 1497 3097 1228 2736 
Q 959 2375 959 1747 
Q 959 1119 1226 758 
Q 1494 397 1959 397 
Q 2419 397 2687 759 
Q 2956 1122 2956 1747 
Q 2956 2369 2687 2733 
Q 2419 3097 1959 3097 
z
M 1959 3584 
Q 2709 3584 3137 3096 
Q 3566 2609 3566 1747 
Q 3566 888 3137 398 
Q 2709 -91 1959 -91 
Q 1206 -91 779 398 
Q 353 888 353 1747 
Q 353 2609 779 3096 
Q 1206 3584 1959 3584 
z
" transform="scale(0.015625)"/>
       <path id="DejaVuSans-73" d="M 2834 3397 
L 2834 2853 
Q 2591 2978 2328 3040 
Q 2066 3103 1784 3103 
Q 1356 3103 1142 2972 
Q 928 2841 928 2578 
Q 928 2378 1081 2264 
Q 1234 2150 1697 2047 
L 1894 2003 
Q 2506 1872 2764 1633 
Q 3022 1394 3022 966 
Q 3022 478 2636 193 
Q 2250 -91 1575 -91 
Q 1294 -91 989 -36 
Q 684 19 347 128 
L 347 722 
Q 666 556 975 473 
Q 1284 391 1588 391 
Q 1994 391 2212 530 
Q 2431 669 2431 922 
Q 2431 1156 2273 1281 
Q 2116 1406 1581 1522 
L 1381 1569 
Q 847 1681 609 1914 
Q 372 2147 372 2553 
Q 372 3047 722 3315 
Q 1072 3584 1716 3584 
Q 2034 3584 2315 3537 
Q 2597 3491 2834 3397 
z
" transform="scale(0.015625)"/>
      </defs>
      <use xlink:href="#DejaVuSans-54"/>
      <use xlink:href="#DejaVuSans-72" transform="translate(46.333984 0)"/>
      <use xlink:href="#DejaVuSans-61" transform="translate(87.447266 0)"/>
      <use xlink:href="#DejaVuSans-69" transform="translate(148.726562 0)"/>
      <use xlink:href="#DejaVuSans-6e" transform="translate(176.509766 0)"/>
      <use xlink:href="#DejaVuSans-69" transform="translate(239.888672 0)"/>
      <use xlink:href="#DejaVuSans-6e" transform="translate(267.671875 0)"/>
      <use xlink:href="#DejaVuSans-67" transform="translate(331.050781 0)"/>
      <use xlink:href="#DejaVuSans-20" transform="translate(394.527344 0)"/>
      <use xlink:href="#DejaVuSans-4c" transform="translate(426.314453 0)"/>
      <use xlink:href="#DejaVuSans-6f" transform="translate(480.277344 0)"/>
      <use xlink:href="#DejaVuSans-73" transform="translate(541.458984 0)"/>
      <use xlink:href="#DejaVuSans-73" transform="translate(593.558594 0)"/>
     </g>
    </g>
   </g>
   <g id="line2d_31">
    <path d="M 115.363636 67.607822 
L 123.961479 82.042626 
L 132.559322 66.96 
L 141.157165 108.188058 
L 149.755008 143.22028 
L 158.352851 168.352453 
L 166.950693 193.38496 
L 175.548536 238.68267 
L 184.146379 236.041549 
L 192.744222 275.425806 
L 201.342065 330.374403 
L 209.939908 321.188619 
L 218.53775 265.110486 
L 227.135593 312.202164 
L 235.733436 292.202736 
L 244.331279 283.548498 
L 252.929122 273.897611 
L 261.526965 325.972535 
L 270.124807 299.827102 
L 278.72265 304.760516 
L 287.320493 298.14941 
L 295.918336 298.282296 
L 304.516179 270.791387 
L 313.114022 325.141994 
L 321.711864 293.415325 
L 330.309707 307.883351 
L 338.90755 321.603889 
L 347.505393 254.529393 
L 356.103236 332.068706 
L 364.701079 270.724944 
L 373.298921 321.886273 
L 381.896764 347.616435 
L 390.494607 341.570096 
L 399.09245 316.321648 
L 407.690293 290.574875 
L 416.288136 321.720165 
L 424.885978 330.042186 
L 433.483821 320.906235 
L 442.081664 330.955781 
L 450.679507 281.023653 
L 459.27735 331.869377 
L 467.875193 300.940027 
L 476.473035 296.405273 
L 485.070878 312.484548 
L 493.668721 327.949223 
L 502.266564 291.754243 
L 510.864407 309.959703 
L 519.46225 301.122746 
L 528.060092 286.953716 
L 536.657935 313.065927 
L 545.255778 329.577083 
L 553.853621 289.877221 
L 562.451464 292.3024 
L 571.049307 279.329349 
L 579.647149 314.74362 
L 588.244992 303.780478 
L 596.842835 310.208866 
L 605.440678 336.603461 
L 614.038521 314.677177 
L 622.636364 369.36 
" clip-path="url(#ped352883df)" style="fill: none; stroke: #1f77b4; stroke-width: 1.5; stroke-linecap: square"/>
    <defs>
     <path id="mf80e3fe5e9" d="M 0 3 
C 0.795609 3 1.55874 2.683901 2.12132 2.12132 
C 2.683901 1.55874 3 0.795609 3 0 
C 3 -0.795609 2.683901 -1.55874 2.12132 -2.12132 
C 1.55874 -2.683901 0.795609 -3 0 -3 
C -0.795609 -3 -1.55874 -2.683901 -2.12132 -2.12132 
C -2.683901 -1.55874 -3 -0.795609 -3 0 
C -3 0.795609 -2.683901 1.55874 -2.12132 2.12132 
C -1.55874 2.683901 -0.795609 3 0 3 
z
" style="stroke: #1f77b4"/>
    </defs>
    <g clip-path="url(#ped352883df)">
     <use xlink:href="#mf80e3fe5e9" x="115.363636" y="67.607822" style="fill: #1f77b4; stroke: #1f77b4"/>
     <use xlink:href="#mf80e3fe5e9" x="123.961479" y="82.042626" style="fill: #1f77b4; stroke: #1f77b4"/>
     <use xlink:href="#mf80e3fe5e9" x="132.559322" y="66.96" style="fill: #1f77b4; stroke: #1f77b4"/>
     <use xlink:href="#mf80e3fe5e9" x="141.157165" y="108.188058" style="fill: #1f77b4; stroke: #1f77b4"/>
     <use xlink:href="#mf80e3fe5e9" x="149.755008" y="143.22028" style="fill: #1f77b4; stroke: #1f77b4"/>
     <use xlink:href="#mf80e3fe5e9" x="158.352851" y="168.352453" style="fill: #1f77b4; stroke: #1f77b4"/>
     <use xlink:href="#mf80e3fe5e9" x="166.950693" y="193.38496" style="fill: #1f77b4; stroke: #1f77b4"/>
     <use xlink:href="#mf80e3fe5e9" x="175.548536" y="238.68267" style="fill: #1f77b4; stroke: #1f77b4"/>
     <use xlink:href="#mf80e3fe5e9" x="184.146379" y="236.041549" style="fill: #1f77b4; stroke: #1f77b4"/>
     <use xlink:href="#mf80e3fe5e9" x="192.744222" y="275.425806" style="fill: #1f77b4; stroke: #1f77b4"/>
     <use xlink:href="#mf80e3fe5e9" x="201.342065" y="330.374403" style="fill: #1f77b4; stroke: #1f77b4"/>
     <use xlink:href="#mf80e3fe5e9" x="209.939908" y="321.188619" style="fill: #1f77b4; stroke: #1f77b4"/>
     <use xlink:href="#mf80e3fe5e9" x="218.53775" y="265.110486" style="fill: #1f77b4; stroke: #1f77b4"/>
     <use xlink:href="#mf80e3fe5e9" x="227.135593" y="312.202164" style="fill: #1f77b4; stroke: #1f77b4"/>
     <use xlink:href="#mf80e3fe5e9" x="235.733436" y="292.202736" style="fill: #1f77b4; stroke: #1f77b4"/>
     <use xlink:href="#mf80e3fe5e9" x="244.331279" y="283.548498" style="fill: #1f77b4; stroke: #1f77b4"/>
     <use xlink:href="#mf80e3fe5e9" x="252.929122" y="273.897611" style="fill: #1f77b4; stroke: #1f77b4"/>
     <use xlink:href="#mf80e3fe5e9" x="261.526965" y="325.972535" style="fill: #1f77b4; stroke: #1f77b4"/>
     <use xlink:href="#mf80e3fe5e9" x="270.124807" y="299.827102" style="fill: #1f77b4; stroke: #1f77b4"/>
     <use xlink:href="#mf80e3fe5e9" x="278.72265" y="304.760516" style="fill: #1f77b4; stroke: #1f77b4"/>
     <use xlink:href="#mf80e3fe5e9" x="287.320493" y="298.14941" style="fill: #1f77b4; stroke: #1f77b4"/>
     <use xlink:href="#mf80e3fe5e9" x="295.918336" y="298.282296" style="fill: #1f77b4; stroke: #1f77b4"/>
     <use xlink:href="#mf80e3fe5e9" x="304.516179" y="270.791387" style="fill: #1f77b4; stroke: #1f77b4"/>
     <use xlink:href="#mf80e3fe5e9" x="313.114022" y="325.141994" style="fill: #1f77b4; stroke: #1f77b4"/>
     <use xlink:href="#mf80e3fe5e9" x="321.711864" y="293.415325" style="fill: #1f77b4; stroke: #1f77b4"/>
     <use xlink:href="#mf80e3fe5e9" x="330.309707" y="307.883351" style="fill: #1f77b4; stroke: #1f77b4"/>
     <use xlink:href="#mf80e3fe5e9" x="338.90755" y="321.603889" style="fill: #1f77b4; stroke: #1f77b4"/>
     <use xlink:href="#mf80e3fe5e9" x="347.505393" y="254.529393" style="fill: #1f77b4; stroke: #1f77b4"/>
     <use xlink:href="#mf80e3fe5e9" x="356.103236" y="332.068706" style="fill: #1f77b4; stroke: #1f77b4"/>
     <use xlink:href="#mf80e3fe5e9" x="364.701079" y="270.724944" style="fill: #1f77b4; stroke: #1f77b4"/>
     <use xlink:href="#mf80e3fe5e9" x="373.298921" y="321.886273" style="fill: #1f77b4; stroke: #1f77b4"/>
     <use xlink:href="#mf80e3fe5e9" x="381.896764" y="347.616435" style="fill: #1f77b4; stroke: #1f77b4"/>
     <use xlink:href="#mf80e3fe5e9" x="390.494607" y="341.570096" style="fill: #1f77b4; stroke: #1f77b4"/>
     <use xlink:href="#mf80e3fe5e9" x="399.09245" y="316.321648" style="fill: #1f77b4; stroke: #1f77b4"/>
     <use xlink:href="#mf80e3fe5e9" x="407.690293" y="290.574875" style="fill: #1f77b4; stroke: #1f77b4"/>
     <use xlink:href="#mf80e3fe5e9" x="416.288136" y="321.720165" style="fill: #1f77b4; stroke: #1f77b4"/>
     <use xlink:href="#mf80e3fe5e9" x="424.885978" y="330.042186" style="fill: #1f77b4; stroke: #1f77b4"/>
     <use xlink:href="#mf80e3fe5e9" x="433.483821" y="320.906235" style="fill: #1f77b4; stroke: #1f77b4"/>
     <use xlink:href="#mf80e3fe5e9" x="442.081664" y="330.955781" style="fill: #1f77b4; stroke: #1f77b4"/>
     <use xlink:href="#mf80e3fe5e9" x="450.679507" y="281.023653" style="fill: #1f77b4; stroke: #1f77b4"/>
     <use xlink:href="#mf80e3fe5e9" x="459.27735" y="331.869377" style="fill: #1f77b4; stroke: #1f77b4"/>
     <use xlink:href="#mf80e3fe5e9" x="467.875193" y="300.940027" style="fill: #1f77b4; stroke: #1f77b4"/>
     <use xlink:href="#mf80e3fe5e9" x="476.473035" y="296.405273" style="fill: #1f77b4; stroke: #1f77b4"/>
     <use xlink:href="#mf80e3fe5e9" x="485.070878" y="312.484548" style="fill: #1f77b4; stroke: #1f77b4"/>
     <use xlink:href="#mf80e3fe5e9" x="493.668721" y="327.949223" style="fill: #1f77b4; stroke: #1f77b4"/>
     <use xlink:href="#mf80e3fe5e9" x="502.266564" y="291.754243" style="fill: #1f77b4; stroke: #1f77b4"/>
     <use xlink:href="#mf80e3fe5e9" x="510.864407" y="309.959703" style="fill: #1f77b4; stroke: #1f77b4"/>
     <use xlink:href="#mf80e3fe5e9" x="519.46225" y="301.122746" style="fill: #1f77b4; stroke: #1f77b4"/>
     <use xlink:href="#mf80e3fe5e9" x="528.060092" y="286.953716" style="fill: #1f77b4; stroke: #1f77b4"/>
     <use xlink:href="#mf80e3fe5e9" x="536.657935" y="313.065927" style="fill: #1f77b4; stroke: #1f77b4"/>
     <use xlink:href="#mf80e3fe5e9" x="545.255778" y="329.577083" style="fill: #1f77b4; stroke: #1f77b4"/>
     <use xlink:href="#mf80e3fe5e9" x="553.853621" y="289.877221" style="fill: #1f77b4; stroke: #1f77b4"/>
     <use xlink:href="#mf80e3fe5e9" x="562.451464" y="292.3024" style="fill: #1f77b4; stroke: #1f77b4"/>
     <use xlink:href="#mf80e3fe5e9" x="571.049307" y="279.329349" style="fill: #1f77b4; stroke: #1f77b4"/>
     <use xlink:href="#mf80e3fe5e9" x="579.647149" y="314.74362" style="fill: #1f77b4; stroke: #1f77b4"/>
     <use xlink:href="#mf80e3fe5e9" x="588.244992" y="303.780478" style="fill: #1f77b4; stroke: #1f77b4"/>
     <use xlink:href="#mf80e3fe5e9" x="596.842835" y="310.208866" style="fill: #1f77b4; stroke: #1f77b4"/>
     <use xlink:href="#mf80e3fe5e9" x="605.440678" y="336.603461" style="fill: #1f77b4; stroke: #1f77b4"/>
     <use xlink:href="#mf80e3fe5e9" x="614.038521" y="314.677177" style="fill: #1f77b4; stroke: #1f77b4"/>
     <use xlink:href="#mf80e3fe5e9" x="622.636364" y="369.36" style="fill: #1f77b4; stroke: #1f77b4"/>
    </g>
   </g>
   <g id="patch_3">
    <path d="M 90 384.48 
L 90 51.84 
" style="fill: none; stroke: #000000; stroke-width: 0.8; stroke-linejoin: miter; stroke-linecap: square"/>
   </g>
   <g id="patch_4">
    <path d="M 648 384.48 
L 648 51.84 
" style="fill: none; stroke: #000000; stroke-width: 0.8; stroke-linejoin: miter; stroke-linecap: square"/>
   </g>
   <g id="patch_5">
    <path d="M 90 384.48 
L 648 384.48 
" style="fill: none; stroke: #000000; stroke-width: 0.8; stroke-linejoin: miter; stroke-linecap: square"/>
   </g>
   <g id="patch_6">
    <path d="M 90 51.84 
L 648 51.84 
" style="fill: none; stroke: #000000; stroke-width: 0.8; stroke-linejoin: miter; stroke-linecap: square"/>
   </g>
   <g id="text_18">
    <!-- Llama 3.1 8B Fine-tuning Training Loss for Stance Detection -->
    <g transform="translate(189.6225 45.84) scale(0.12 -0.12)">
     <defs>
      <path id="DejaVuSans-6c" d="M 603 4863 
L 1178 4863 
L 1178 0 
L 603 0 
L 603 4863 
z
" transform="scale(0.015625)"/>
      <path id="DejaVuSans-6d" d="M 3328 2828 
Q 3544 3216 3844 3400 
Q 4144 3584 4550 3584 
Q 5097 3584 5394 3201 
Q 5691 2819 5691 2113 
L 5691 0 
L 5113 0 
L 5113 2094 
Q 5113 2597 4934 2840 
Q 4756 3084 4391 3084 
Q 3944 3084 3684 2787 
Q 3425 2491 3425 1978 
L 3425 0 
L 2847 0 
L 2847 2094 
Q 2847 2600 2669 2842 
Q 2491 3084 2119 3084 
Q 1678 3084 1418 2786 
Q 1159 2488 1159 1978 
L 1159 0 
L 581 0 
L 581 3500 
L 1159 3500 
L 1159 2956 
Q 1356 3278 1631 3431 
Q 1906 3584 2284 3584 
Q 2666 3584 2933 3390 
Q 3200 3197 3328 2828 
z
" transform="scale(0.015625)"/>
      <path id="DejaVuSans-38" d="M 2034 2216 
Q 1584 2216 1326 1975 
Q 1069 1734 1069 1313 
Q 1069 891 1326 650 
Q 1584 409 2034 409 
Q 2484 409 2743 651 
Q 3003 894 3003 1313 
Q 3003 1734 2745 1975 
Q 2488 2216 2034 2216 
z
M 1403 2484 
Q 997 2584 770 2862 
Q 544 3141 544 3541 
Q 544 4100 942 4425 
Q 1341 4750 2034 4750 
Q 2731 4750 3128 4425 
Q 3525 4100 3525 3541 
Q 3525 3141 3298 2862 
Q 3072 2584 2669 2484 
Q 3125 2378 3379 2068 
Q 3634 1759 3634 1313 
Q 3634 634 3220 271 
Q 2806 -91 2034 -91 
Q 1263 -91 848 271 
Q 434 634 434 1313 
Q 434 1759 690 2068 
Q 947 2378 1403 2484 
z
M 1172 3481 
Q 1172 3119 1398 2916 
Q 1625 2713 2034 2713 
Q 2441 2713 2670 2916 
Q 2900 3119 2900 3481 
Q 2900 3844 2670 4047 
Q 2441 4250 2034 4250 
Q 1625 4250 1398 4047 
Q 1172 3844 1172 3481 
z
" transform="scale(0.015625)"/>
      <path id="DejaVuSans-42" d="M 1259 2228 
L 1259 519 
L 2272 519 
Q 2781 519 3026 730 
Q 3272 941 3272 1375 
Q 3272 1813 3026 2020 
Q 2781 2228 2272 2228 
L 1259 2228 
z
M 1259 4147 
L 1259 2741 
L 2194 2741 
Q 2656 2741 2882 2914 
Q 3109 3088 3109 3444 
Q 3109 3797 2882 3972 
Q 2656 4147 2194 4147 
L 1259 4147 
z
M 628 4666 
L 2241 4666 
Q 2963 4666 3353 4366 
Q 3744 4066 3744 3513 
Q 3744 3084 3544 2831 
Q 3344 2578 2956 2516 
Q 3422 2416 3680 2098 
Q 3938 1781 3938 1306 
Q 3938 681 3513 340 
Q 3088 0 2303 0 
L 628 0 
L 628 4666 
z
" transform="scale(0.015625)"/>
      <path id="DejaVuSans-46" d="M 628 4666 
L 3309 4666 
L 3309 4134 
L 1259 4134 
L 1259 2759 
L 3109 2759 
L 3109 2228 
L 1259 2228 
L 1259 0 
L 628 0 
L 628 4666 
z
" transform="scale(0.015625)"/>
      <path id="DejaVuSans-2d" d="M 313 2009 
L 1997 2009 
L 1997 1497 
L 313 1497 
L 313 2009 
z
" transform="scale(0.015625)"/>
      <path id="DejaVuSans-75" d="M 544 1381 
L 544 3500 
L 1119 3500 
L 1119 1403 
Q 1119 906 1312 657 
Q 1506 409 1894 409 
Q 2359 409 2629 706 
Q 2900 1003 2900 1516 
L 2900 3500 
L 3475 3500 
L 3475 0 
L 2900 0 
L 2900 538 
Q 2691 219 2414 64 
Q 2138 -91 1772 -91 
Q 1169 -91 856 284 
Q 544 659 544 1381 
z
M 1991 3584 
L 1991 3584 
z
" transform="scale(0.015625)"/>
      <path id="DejaVuSans-66" d="M 2375 4863 
L 2375 4384 
L 1825 4384 
Q 1516 4384 1395 4259 
Q 1275 4134 1275 3809 
L 1275 3500 
L 2222 3500 
L 2222 3053 
L 1275 3053 
L 1275 0 
L 697 0 
L 697 3053 
L 147 3053 
L 147 3500 
L 697 3500 
L 697 3744 
Q 697 4328 969 4595 
Q 1241 4863 1831 4863 
L 2375 4863 
z
" transform="scale(0.015625)"/>
      <path id="DejaVuSans-63" d="M 3122 3366 
L 3122 2828 
Q 2878 2963 2633 3030 
Q 2388 3097 2138 3097 
Q 1578 3097 1268 2742 
Q 959 2388 959 1747 
Q 959 1106 1268 751 
Q 1578 397 2138 397 
Q 2388 397 2633 464 
Q 2878 531 3122 666 
L 3122 134 
Q 2881 22 2623 -34 
Q 2366 -91 2075 -91 
Q 1284 -91 818 406 
Q 353 903 353 1747 
Q 353 2603 823 3093 
Q 1294 3584 2113 3584 
Q 2378 3584 2631 3529 
Q 2884 3475 3122 3366 
z
" transform="scale(0.015625)"/>
      <path id="DejaVuSans-44" d="M 1259 4147 
L 1259 519 
L 2022 519 
Q 2988 519 3436 956 
Q 3884 1394 3884 2338 
Q 3884 3275 3436 3711 
Q 2988 4147 2022 4147 
L 1259 4147 
z
M 628 4666 
L 1925 4666 
Q 3281 4666 3915 4102 
Q 4550 3538 4550 2338 
Q 4550 1131 3912 565 
Q 3275 0 1925 0 
L 628 0 
L 628 4666 
z
" transform="scale(0.015625)"/>
     </defs>
     <use xlink:href="#DejaVuSans-4c"/>
     <use xlink:href="#DejaVuSans-6c" transform="translate(55.712891 0)"/>
     <use xlink:href="#DejaVuSans-61" transform="translate(83.496094 0)"/>
     <use xlink:href="#DejaVuSans-6d" transform="translate(144.775391 0)"/>
     <use xlink:href="#DejaVuSans-61" transform="translate(242.1875 0)"/>
     <use xlink:href="#DejaVuSans-20" transform="translate(303.466797 0)"/>
     <use xlink:href="#DejaVuSans-33" transform="translate(335.253906 0)"/>
     <use xlink:href="#DejaVuSans-2e" transform="translate(398.876953 0)"/>
     <use xlink:href="#DejaVuSans-31" transform="translate(430.664062 0)"/>
     <use xlink:href="#DejaVuSans-20" transform="translate(494.287109 0)"/>
     <use xlink:href="#DejaVuSans-38" transform="translate(526.074219 0)"/>
     <use xlink:href="#DejaVuSans-42" transform="translate(589.697266 0)"/>
     <use xlink:href="#DejaVuSans-20" transform="translate(658.300781 0)"/>
     <use xlink:href="#DejaVuSans-46" transform="translate(690.087891 0)"/>
     <use xlink:href="#DejaVuSans-69" transform="translate(740.357422 0)"/>
     <use xlink:href="#DejaVuSans-6e" transform="translate(768.140625 0)"/>
     <use xlink:href="#DejaVuSans-65" transform="translate(831.519531 0)"/>
     <use xlink:href="#DejaVuSans-2d" transform="translate(893.042969 0)"/>
     <use xlink:href="#DejaVuSans-74" transform="translate(929.126953 0)"/>
     <use xlink:href="#DejaVuSans-75" transform="translate(968.335938 0)"/>
     <use xlink:href="#DejaVuSans-6e" transform="translate(1031.714844 0)"/>
     <use xlink:href="#DejaVuSans-69" transform="translate(1095.09375 0)"/>
     <use xlink:href="#DejaVuSans-6e" transform="translate(1122.876953 0)"/>
     <use xlink:href="#DejaVuSans-67" transform="translate(1186.255859 0)"/>
     <use xlink:href="#DejaVuSans-20" transform="translate(1249.732422 0)"/>
     <use xlink:href="#DejaVuSans-54" transform="translate(1281.519531 0)"/>
     <use xlink:href="#DejaVuSans-72" transform="translate(1327.853516 0)"/>
     <use xlink:href="#DejaVuSans-61" transform="translate(1368.966797 0)"/>
     <use xlink:href="#DejaVuSans-69" transform="translate(1430.246094 0)"/>
     <use xlink:href="#DejaVuSans-6e" transform="translate(1458.029297 0)"/>
     <use xlink:href="#DejaVuSans-69" transform="translate(1521.408203 0)"/>
     <use xlink:href="#DejaVuSans-6e" transform="translate(1549.191406 0)"/>
     <use xlink:href="#DejaVuSans-67" transform="translate(1612.570312 0)"/>
     <use xlink:href="#DejaVuSans-20" transform="translate(1676.046875 0)"/>
     <use xlink:href="#DejaVuSans-4c" transform="translate(1707.833984 0)"/>
     <use xlink:href="#DejaVuSans-6f" transform="translate(1761.796875 0)"/>
     <use xlink:href="#DejaVuSans-73" transform="translate(1822.978516 0)"/>
     <use xlink:href="#DejaVuSans-73" transform="translate(1875.078125 0)"/>
     <use xlink:href="#DejaVuSans-20" transform="translate(1927.177734 0)"/>
     <use xlink:href="#DejaVuSans-66" transform="translate(1958.964844 0)"/>
     <use xlink:href="#DejaVuSans-6f" transform="translate(1994.169922 0)"/>
     <use xlink:href="#DejaVuSans-72" transform="translate(2055.351562 0)"/>
     <use xlink:href="#DejaVuSans-20" transform="translate(2096.464844 0)"/>
     <use xlink:href="#DejaVuSans-53" transform="translate(2128.251953 0)"/>
     <use xlink:href="#DejaVuSans-74" transform="translate(2191.728516 0)"/>
     <use xlink:href="#DejaVuSans-61" transform="translate(2230.9375 0)"/>
     <use xlink:href="#DejaVuSans-6e" transform="translate(2292.216797 0)"/>
     <use xlink:href="#DejaVuSans-63" transform="translate(2355.595703 0)"/>
     <use xlink:href="#DejaVuSans-65" transform="translate(2410.576172 0)"/>
     <use xlink:href="#DejaVuSans-20" transform="translate(2472.099609 0)"/>
     <use xlink:href="#DejaVuSans-44" transform="translate(2503.886719 0)"/>
     <use xlink:href="#DejaVuSans-65" transform="translate(2580.888672 0)"/>
     <use xlink:href="#DejaVuSans-74" transform="translate(2642.412109 0)"/>
     <use xlink:href="#DejaVuSans-65" transform="translate(2681.621094 0)"/>
     <use xlink:href="#DejaVuSans-63" transform="translate(2743.144531 0)"/>
     <use xlink:href="#DejaVuSans-74" transform="translate(2798.125 0)"/>
     <use xlink:href="#DejaVuSans-69" transform="translate(2837.333984 0)"/>
     <use xlink:href="#DejaVuSans-6f" transform="translate(2865.117188 0)"/>
     <use xlink:href="#DejaVuSans-6e" transform="translate(2926.298828 0)"/>
    </g>
   </g>
  </g>
 </g>
 <defs>
  <clipPath id="ped352883df">
   <rect x="90" y="51.84" width="558" height="332.64"/>
  </clipPath>
 </defs>
</svg>
